<svg width="48" height="49" viewBox="0 0 48 49" fill="none" xmlns="http://www.w3.org/2000/svg">
<rect width="48" height="49" rx="12" fill="#202327"/>
<path d="M30.2498 24.7435C30.6219 24.106 31.5462 24.106 31.9143 24.7435L35.869 31.5383C36.2414 32.1759 35.775 32.9697 35.0347 32.9697H27.1252C26.385 32.9697 25.9229 32.1759 26.2909 31.5383L30.2457 24.7435H30.2498Z" fill="#FF394A"/>
<path d="M27.8614 20.219C28.2213 19.5856 28.2213 18.8041 27.8614 18.1665L24.6182 12.4781C24.2542 11.8406 23.3463 11.8406 22.9823 12.4781L12.1283 31.5341C11.7643 32.1716 12.2182 32.9696 12.9462 32.9696H19.4284C20.1522 32.9696 20.8189 32.5788 21.1788 31.9454L27.8573 20.219H27.8614Z" fill="#FF394A"/>
</svg>
