<svg width="17" height="17" viewBox="0 0 17 17" fill="none" xmlns="http://www.w3.org/2000/svg">
<path d="M4.19716 14.8748C3.92564 14.8748 3.66309 14.7804 3.40951 14.5915C3.15593 14.4026 2.98758 14.1724 2.90447 13.9008C2.60934 12.9092 2.36733 12.0505 2.17844 11.3247C1.98956 10.5989 1.83892 9.96139 1.72653 9.4122C1.61414 8.86301 1.53457 8.37592 1.48783 7.95093C1.44108 7.52593 1.41747 7.11865 1.41699 6.72907C1.41699 5.64297 1.79477 4.72215 2.55031 3.96661C3.30586 3.21106 4.22668 2.83329 5.31277 2.83329H8.85439C9.17314 2.40829 9.57759 2.06594 10.0678 1.80622C10.5579 1.5465 11.0979 1.41664 11.6877 1.41664C11.9828 1.41664 12.2338 1.52006 12.4406 1.72689C12.6475 1.93372 12.7506 2.18446 12.7502 2.47913C12.7502 2.54996 12.7412 2.62079 12.7233 2.69162C12.7053 2.76246 12.6848 2.82739 12.6616 2.88641C12.6144 3.01627 12.5703 3.14613 12.5292 3.27599C12.4881 3.40585 12.4555 3.54752 12.4314 3.70099L14.0429 5.31242H14.8751C15.0758 5.31242 15.2442 5.38042 15.3802 5.51642C15.5162 5.65242 15.5839 5.82053 15.5835 6.02075V9.73945C15.5835 9.89292 15.5393 10.0287 15.451 10.1467C15.3627 10.2648 15.2416 10.3533 15.0876 10.4124L13.5825 10.9082L12.697 13.8654C12.6026 14.1724 12.4314 14.4175 12.1835 14.6007C11.9356 14.7839 11.6523 14.8753 11.3335 14.8748H9.91688C9.5273 14.8748 9.19392 14.7362 8.91673 14.459C8.63953 14.1818 8.5007 13.8482 8.50023 13.4581H7.08358C7.08358 13.8477 6.94499 14.1813 6.6678 14.459C6.39061 14.7367 6.05699 14.8753 5.66694 14.8748H4.19716ZM4.25029 13.4581H5.66694V12.0415H9.91688V13.4581H11.3335L12.4314 9.81028L14.1668 9.22591V6.72907H13.4585L10.9794 4.24994C10.9794 4.01383 10.9942 3.78362 11.024 3.55932C11.0537 3.33502 11.0979 3.11662 11.1564 2.90412C10.8141 2.99856 10.5131 3.16101 10.2533 3.39145C9.99361 3.62189 9.80473 3.90805 9.68667 4.24994H5.31277C4.62806 4.24994 4.04369 4.49195 3.55967 4.97597C3.07565 5.45999 2.83364 6.04436 2.83364 6.72907C2.83364 7.21309 2.9576 8.04254 3.20551 9.21741C3.45342 10.3923 3.80168 11.8059 4.25029 13.4581ZM11.8386 7.58827C11.9741 7.45227 12.0418 7.28392 12.0418 7.08323C12.0418 6.88254 11.9739 6.71443 11.8379 6.57891C11.7019 6.44338 11.5337 6.37538 11.3335 6.37491C11.1333 6.37444 10.9652 6.44243 10.8292 6.57891C10.6932 6.71538 10.6252 6.88348 10.6252 7.08323C10.6252 7.28298 10.6932 7.45132 10.8292 7.58827C10.9652 7.72521 11.1333 7.79297 11.3335 7.79156C11.5337 7.79014 11.7021 7.72214 11.8386 7.58756M8.50023 6.37491C8.70092 6.37491 8.86927 6.30691 9.00527 6.17091C9.14126 6.03491 9.20903 5.8668 9.20855 5.66658C9.20808 5.46636 9.14008 5.29826 9.00456 5.16226C8.86903 5.02626 8.70092 4.95826 8.50023 4.95826H6.37526C6.17457 4.95826 6.00646 5.02626 5.87093 5.16226C5.73541 5.29826 5.66741 5.46636 5.66694 5.66658C5.66646 5.8668 5.73446 6.03515 5.87093 6.17162C6.0074 6.30809 6.17551 6.37585 6.37526 6.37491H8.50023Z" fill="white"/>
</svg>
