<svg width="20" height="20" viewBox="0 0 20 20" fill="none" xmlns="http://www.w3.org/2000/svg">
<path d="M4.80874 6.8L7.81707 7.33333H7.82541L6.38374 8.775L2.37541 8.06666L1.66707 4.05833L3.10874 2.625L3.63374 5.63333L4.56707 4.7C5.26228 4.00256 6.0883 3.44919 6.99778 3.07162C7.90726 2.69404 8.88233 2.49968 9.86707 2.49968C10.8518 2.49968 11.8269 2.69404 12.7364 3.07162C13.6459 3.44919 14.4719 4.00256 15.1671 4.7C15.1999 4.73389 15.2304 4.76861 15.2587 4.80417C15.2871 4.84028 15.3176 4.875 15.3504 4.90833C15.4754 5.04166 15.6004 5.18333 15.7171 5.325C15.7921 5.41666 15.8671 5.51666 15.9421 5.61666C16.0754 5.8 16.1921 5.98333 16.3087 6.175L16.3396 6.2225C16.3579 6.24861 16.3754 6.27722 16.3921 6.30833C16.5459 6.58282 16.6823 6.86671 16.8004 7.15833L16.8171 7.2C17.1087 7.93333 17.2837 8.69166 17.3421 9.46666L15.6421 9.225C15.5574 8.61828 15.3804 8.02811 15.1171 7.475L15.0671 7.375C14.9447 7.13224 14.8054 6.89834 14.6504 6.675C14.636 6.65889 14.6221 6.64083 14.6087 6.62083C14.424 6.3508 14.2148 6.09835 13.9837 5.86666C12.8906 4.7741 11.4084 4.16035 9.86291 4.16035C8.31741 4.16035 6.83517 4.7741 5.74207 5.86666L4.80874 6.8ZM13.3504 11.225L17.3587 11.9333L17.3671 11.9417L18.0754 15.95L16.6337 17.3917L16.1004 14.3833L15.1671 15.3167C12.2337 18.2417 7.48374 18.2417 4.55874 15.3167L4.35874 15.0917C3.20116 13.8444 2.50435 12.2391 2.38374 10.5417L4.08374 10.7833C4.25041 12.0083 4.80041 13.1917 5.74207 14.1333C5.93374 14.325 6.14207 14.5 6.35041 14.6583C8.63374 16.3833 11.9004 16.2167 13.9837 14.1333L14.9171 13.2L11.9087 12.6667L13.3504 11.225Z" fill="white"/>
</svg>
