<svg width="40" height="40" viewBox="0 0 40 40" fill="none" xmlns="http://www.w3.org/2000/svg">
<path d="M31.6666 11.6667H29.9999V10C29.9999 8.67392 29.4731 7.40215 28.5355 6.46447C27.5978 5.52678 26.326 5 24.9999 5H8.33325C7.00717 5 5.7354 5.52678 4.79772 6.46447C3.86004 7.40215 3.33325 8.67392 3.33325 10V30C3.33325 31.3261 3.86004 32.5979 4.79772 33.5355C5.7354 34.4732 7.00717 35 8.33325 35H31.6666C32.9927 35 34.2644 34.4732 35.2021 33.5355C36.1398 32.5979 36.6666 31.3261 36.6666 30V16.6667C36.6666 15.3406 36.1398 14.0688 35.2021 13.1311C34.2644 12.1935 32.9927 11.6667 31.6666 11.6667ZM8.33325 8.33333H24.9999C25.4419 8.33333 25.8659 8.50893 26.1784 8.82149C26.491 9.13405 26.6666 9.55797 26.6666 10V11.6667H8.33325C7.89122 11.6667 7.4673 11.4911 7.15474 11.1785C6.84218 10.866 6.66659 10.442 6.66659 10C6.66659 9.55797 6.84218 9.13405 7.15474 8.82149C7.4673 8.50893 7.89122 8.33333 8.33325 8.33333ZM33.3333 25H31.6666C31.2246 25 30.8006 24.8244 30.4881 24.5118C30.1755 24.1993 29.9999 23.7754 29.9999 23.3333C29.9999 22.8913 30.1755 22.4674 30.4881 22.1548C30.8006 21.8423 31.2246 21.6667 31.6666 21.6667H33.3333V25ZM33.3333 18.3333H31.6666C30.3405 18.3333 29.0687 18.8601 28.1311 19.7978C27.1934 20.7355 26.6666 22.0072 26.6666 23.3333C26.6666 24.6594 27.1934 25.9312 28.1311 26.8689C29.0687 27.8065 30.3405 28.3333 31.6666 28.3333H33.3333V30C33.3333 30.442 33.1577 30.866 32.8451 31.1785C32.5325 31.4911 32.1086 31.6667 31.6666 31.6667H8.33325C7.89122 31.6667 7.4673 31.4911 7.15474 31.1785C6.84218 30.866 6.66659 30.442 6.66659 30V14.7167C7.20203 14.905 7.76564 15.0008 8.33325 15H31.6666C32.1086 15 32.5325 15.1756 32.8451 15.4882C33.1577 15.8007 33.3333 16.2246 33.3333 16.6667V18.3333Z" fill="white"/>
</svg>
